<svg xmlns="http://www.w3.org/2000/svg" width="29.7" height="31.588" viewBox="0 0 29.7 31.588"><defs><style>.a{fill:#aaa8a8;}</style></defs><g transform="translate(-0.016 0.001)"><g transform="translate(0.016 -0.001)"><path class="a" d="M6.3,32.1l6.42-1.707c.27-.239.158-.65.186-1.2l1.148-9.038a1.608,1.608,0,0,0-1.225-1.648,13.682,13.682,0,0,0-6.343-.135A16.578,16.578,0,0,0,.606,21.6,1.617,1.617,0,0,0,.249,23.68l5.363,7.5C5.895,31.645,5.973,32.024,6.3,32.1Z" transform="translate(-0.016 -15.622)"/><path class="a" d="M60.19,129.43l-2.333-8.759h0l-1.268-4.761-.395.105,1.263,4.758-5.274,1.41-1.268-4.762-.395.105,1.268,4.762h0l2.334,8.759c.209.786,1.752,1.065,3.416.62S60.4,130.216,60.19,129.43Z" transform="translate(-43.714 -100.29)"/><path class="a" d="M128.1,88.14v17.383c0,1.061.423,1.928.943,1.928h1.33c.516,0,.943-.868.943-1.928V88.14Z" transform="translate(-110.84 -76.263)"/><path class="a" d="M131.3,56.81v3.947h-2.575V56.81h-.268v4.5h3.113v-4.5Z" transform="translate(-111.152 -49.154)"/><path class="a" d="M121.768,7.484h1.76a.876.876,0,0,0,.823-.747l1.013-5.03a1.007,1.007,0,0,0-.439-1.067A4.607,4.607,0,0,0,122.644,0,4.334,4.334,0,0,0,120.4.607a1,1,0,0,0-.437,1.056l.98,5.074a.877.877,0,0,0,.825.747Z" transform="translate(-103.781 0.001)"/><path class="a" d="M160.812,105.09a.662.662,0,0,0-.02.074l-3.4,15.276a1.381,1.381,0,0,0,.968,1.68l1.156.257a1.378,1.378,0,0,0,1.59-1.112l3.4-15.277a.524.524,0,0,1,.013-.075Z" transform="translate(-136.154 -90.929)"/><path class="a" d="M185.011,90.1l-.659,2.958-3.008-.668L182,89.431l-.365-.081-.748,3.357,3.738.833.748-3.358Z" transform="translate(-156.516 -77.31)"/><path class="a" d="M188.087,62.728l2.582.575a.559.559,0,0,0,.645-.451l.755-3.39a.533.533,0,0,0-.674-.664l-2.938,1.044a.593.593,0,0,0-.364.438l-.4,1.772a.558.558,0,0,0,.4.676Z" transform="translate(-162.384 -50.847)"/></g></g></svg>